<?xml version="1.0" encoding="utf-8"?>
<!-- Generator: Adobe Illustrator 18.1.1, SVG Export Plug-In . SVG Version: 6.00 Build 0)  -->
<svg version="1.1" id="Layer_1" xmlns="http://www.w3.org/2000/svg" xmlns:xlink="http://www.w3.org/1999/xlink" x="0px" y="0px"
	 viewBox="0 0 487.7 114.1" style="enable-background:new 0 0 487.7 114.1;" xml:space="preserve">
<style type="text/css">
	.st0{fill:#FFFFFF;}
	.st1{fill:#D18A00;}
</style>
<g>
	<g>
		<path class="st0" d="M338.2,28.1v8.5c-1.1-0.1-14.2,0-15.5,0c-8.5,0-7.4,9.5-7.4,9.5v34.4H308v-44c0,0,6.1-3,6-8.5H338.2z"/>
		<path class="st0" d="M233,80.8c-14.2,0-19-9.4-19-26.1c0-17.7,4.8-26.8,19.3-26.8c15.2,0,25.7,9.6,25.7,25.7
			c0,19.7-13.6,27.1-26.1,27.1L233,80.8z M233,74.6c9.2,0,14.9-8.1,14.9-20.1c0-9-3.3-20.8-14.7-20.8c-11.3,0-12.6,11-12.6,21.1
			c0,11.6,2.9,19.9,12.2,19.9H233z"/>
		<path class="st0" d="M359.7,80.9c-14.2,0-19-9.4-19-26.1C340.7,37,345.5,28,360,28c15.2,0,25.7,9.6,25.7,25.7
			c0,19.7-13.5,27.1-26.1,27.1L359.7,80.9z M359.7,74.7c9.2,0,14.9-8.1,14.9-20.1c0-9-3.3-20.8-14.7-20.8c-11.2,0-12.5,11-12.5,21.1
			c0,11.6,2.9,19.9,12.2,19.9H359.7z"/>
		<path class="st0" d="M200.1,28.1v35.8c0,6.5,4.4,6.8,4.4,6.8h4.5v9.9h-8.8c0,0-3.2,0.3-5.4-2.3C192.9,76,193,70,193,63.8l0-35.7
			H200.1z"/>
		<path class="st0" d="M132.7,59.4c0,17.2-12,21.3-21.3,21.3c-8.2,0-18.3-4.1-18.3-21.4V28.1h8.1v31.2c0,9.9,2.5,14.6,10.4,14.6
			c9.4,0,9.6-12.9,9.6-14.7V28.1h11.4V59.4z"/>
		<g>
			<path class="st0" d="M0.1,70.6c0,0,13.7,0,18.5,0c6.9,0,10.6-1.2,10.6-5.4c0-4.4-1.3-6.5-8-9.8C12,50.8,1.9,49.9,0.9,43.4
				C-1.3,28.9,11.4,28.1,25,28.1c5.4,0,12,0,12,0v8.5c0,0-6.5,0-11.5,0c-5.7,0-12.1,1-12.1,4.8c0,4.2,5.8,6.2,12.5,9.3
				c0,0,11.1,4.6,11.1,14.9c0,9.1-6.8,15.1-15.9,15.1H0.1V70.6z"/>
		</g>
		<path class="st0" d="M85.1,36.5v-8.1l0-0.3H62.4V17h-7.1c0,0,2.3,11.1-11.5,11.1v5v3.4h11.5l0,27.6c0,6.3-0.3,12.4,1.7,14.4
			c2.4,2.4,6.3,1.9,6.3,1.9h21.4v-9.7h-18c0,0-4.4,0-4.4-6.5V36.5H85.1z"/>
		<path class="st0" d="M300.3,36.5v-8.1l0-0.3h-22.6V17h-7.1c0,0,2.3,11.1-11.5,11.1v5v3.4h11.5l0,27.6c0,6.3-0.3,12.4,1.7,14.4
			c2.4,2.4,6.3,1.9,6.3,1.9H300v-9.7h-18c0,0-4.4,0-4.4-6.5V36.5H300.3z"/>
		<path class="st0" d="M178.8,0v35.9c-4.5-5.3-11.5-8.2-19.8-8.2c-14.6,0-19.3,9-19.3,26.7c0,16.8,4.7,26.2,19,26.2h1.4
			c11.8,0,22.9-6.4,24.6-23.3v-0.2V0H178.8z M158.6,74.4h-0.1c-9.3,0-12.2-8.2-12.2-19.9c0-10.1,1.3-21.1,12.5-21.1
			c11.4,0,14.7,11.8,14.7,20.8C173.5,66.3,167.8,74.4,158.6,74.4z"/>
		<path class="st0" d="M398.4,107.8V71.9c4.5,5.3,11.5,8.2,19.8,8.2c14.6,0,19.3-9,19.3-26.7c0-16.8-4.7-26.2-19-26.2h-1.4
			c-11.8,0-23,6.4-24.6,23.3v0.2v57.1H398.4z M418.5,33.4h0.1c9.3,0,12.2,8.2,12.2,19.9c0,10.1-1.3,21.1-12.5,21.1
			c-11.4,0-14.7-11.8-14.7-20.8C403.6,41.5,409.3,33.4,418.5,33.4z"/>
		<path class="st0" d="M468.6,74.7c-11.4,0.2-14.7-11.8-14.7-20.8c0-2.3,0.1-2.5,0.1-2.5h26.8l0,0h6.9V51
			c-0.8-17.1-6.5-23.4-18.9-23.4h-1.4c-11.8,0-23,6.4-24.6,23.3V51c0,0-1.2,12.8,5.8,21.2c4.5,5.3,11.5,8.2,19.8,8.2
			c13.7,0,17.8-8.2,19-19.7c0-0.3,0.1-1.1,0.1-1.1l-6.6,0C480.1,69.4,476,74.5,468.6,74.7z M468.8,33.7h0.1
			c8.9,0.6,10.8,6.7,10.5,11.1l-24.2,0C456.7,38.8,461.6,33.8,468.8,33.7z"/>
	</g>
</g>
<g>
	<path class="st1" d="M24.3,90.9v13.7c0,3.2,2.2,3.2,2.2,3.2h14c-0.6-1.5-1-3.3-1-5.6V90.9H24.3z"/>
	<path class="st1" d="M21.7,111.7c-1-1-0.9-4-0.9-7.1l0-13.6h-5.7l-9,0c-2.8,0-6.1-0.2-6.1,1.7c0,2.1,2.7,4.2,6,5.7
		c4.5,2.1,6.5,2.5,7.5,6.9c0.1,4.6-1.5,6.4-4.3,7.1h13.4C22.2,112.1,21.9,111.9,21.7,111.7z"/>
	<path class="st1" d="M43.5,87.3v14.8c0,4.9,1.3,7.2,5.1,7.2c4.6,0,4.7-6.4,4.7-7.3V87.3H43.5z"/>
</g>
<g>
	<path class="st0" d="M71.9,97c0-2.4-0.3-2.8-1.9-2.8v-0.5l3.6-0.6v11.2c0,2.4,0.3,2.8,1.9,2.8v0.5l-3.2,0.6
		c-0.1-0.2-0.3-1.1-0.4-1.4c-0.7,0.8-1.6,1.4-2.9,1.4c-2.3,0-4.1-2-4.1-4.4c0-2.4,1.9-4.3,4.1-4.3c1.2,0,2.2,0.5,2.9,1.4V97z
		 M71.9,102.3c-0.4-1.1-1.3-1.9-2.4-1.9c-1.9,0-2.7,1.5-2.7,3.4s0.9,3.4,2.7,3.4c1.1,0,2-0.8,2.4-1.9V102.3z"/>
	<path class="st0" d="M92.1,107.2c0.8,0,1.9-0.5,2.6-1.1l0.4,0.5c-0.8,0.9-2.3,1.6-3.6,1.6c-2.6,0-4.4-2-4.4-4.4
		c0-2.5,2.2-4.3,4.4-4.3c2.1,0,3.8,1.7,3.2,3.8H89C88.7,105.5,89.6,107.2,92.1,107.2z M93.1,102.4c0.3-0.8-0.1-1.9-1.7-1.9
		c-1,0-1.9,0.8-2.2,1.9H93.1z"/>
	<path class="st0" d="M110.1,108.2c-1.6,0-2.5-1.7-2.5,0h-0.5v-3.5h0.5c0,1.1,0.9,2.7,2.6,2.7c0.8,0,1.4-0.5,1.4-1.2
		c0-0.6-0.5-1-1.3-1.4l-1.3-0.7c-1.1-0.6-1.6-1.6-1.6-2.4c0-1.3,1.2-2.2,2.4-2.2c1.8,0,2.2,1.2,2.2,0h0.5v2.8h-0.5c0-1-0.7-2-1.9-2
		c-0.8,0-1.2,0.4-1.2,1c0,0.6,0.4,0.9,1.4,1.4l1.1,0.6c1,0.6,1.6,1.4,1.6,2.3C113,107.2,111.7,108.2,110.1,108.2z"/>
	<path class="st0" d="M124.9,107.8v-0.5c1.6,0,1.9-0.4,1.9-2.8v-1.2c0-2.4-0.3-2.8-1.9-2.8v-0.5l3.6-0.6v5c0,2.4,0.3,2.8,1.9,2.8
		v0.5H124.9z M127.6,97.2c-0.6,0-1-0.5-1-1.1c0-0.6,0.5-1,1-1c0.6,0,1,0.5,1,1C128.7,96.7,128.2,97.2,127.6,97.2z"/>
	<path class="st0" d="M145.3,107.8c3.3,0.3,4.3,1.7,4.3,3.1c0,2-1.9,3.2-4.2,3.2c-4,0-5.6-2.9-2.7-4.5l0.4,0.3
		c-2,2.2,0.4,3.3,2.2,3.3c1.5,0,2.9-0.7,2.9-1.8c0-1.1-1.2-1.5-3.2-1.7c-1.9-0.2-3.4-0.8-3.4-2.2c0-0.9,0.8-1.5,2-1.9
		c-1.2-0.6-2-1.6-2-2.9c0-1.8,1.6-3.2,3.5-3.2c0.9,0,1.8,0.3,2.4,0.9c0.4-0.5,1.3-0.9,1.8-0.9c1.6,0,1.7,1.9,0.8,2
		c-1,0.1-0.5-1.1-1.4-1.1c-0.2,0-0.5,0.1-0.7,0.4c0.4,0.5,0.7,1.2,0.7,1.9c0,1.8-1.5,3-3.1,3.2c-1,0.1-2.7,0.4-2.7,1
		C143.1,107.6,144.5,107.8,145.3,107.8z M145.3,100.2c-1.2,0-1.7,1.1-1.7,2.5c0,1.4,0.6,2.4,1.7,2.4c1.2,0,1.7-1.1,1.7-2.4
		C147.1,101.3,146.5,100.2,145.3,100.2z"/>
	<path class="st0" d="M168.6,99.5c2.1,0,3.1,1.5,3.1,3.5v1.5c0,2.4,0.3,2.8,1.9,2.8v0.5h-5.4v-0.5c1.5,0,1.9-0.4,1.9-2.8v-1.4
		c0-1.5-0.5-2.5-2-2.5c-1.3,0-2.7,1.1-2.7,2.4v1.5c0,2.4,0.2,2.8,1.7,2.8v0.5h-5.2v-0.5c1.6,0,1.9-0.4,1.9-2.8v-1.2
		c0-2.4-0.3-2.8-1.9-2.8v-0.5l3.2-0.6c0.1,0.2,0.3,1.2,0.4,1.7C166,100.4,167.1,99.5,168.6,99.5z"/>
	<path class="st0" d="M202.6,104c0,1.9,0.9,3.2,2.9,3.2c0.8,0,1.8-0.4,2.5-1.1l0.4,0.5c-0.9,1-2.2,1.6-3.5,1.6
		c-2.6,0-4.2-1.8-4.2-4.2c0-2.8,2.3-4.6,4.2-4.6c2,0,2.8,0.8,2.8,1.7c0,0.4-0.2,1-1,1c-0.5,0-0.9-0.4-0.9-1c0-0.8-0.4-1-0.9-1
		C203.6,100.2,202.6,101.9,202.6,104z"/>
	<path class="st0" d="M224.8,108.2c-2.6,0-4.8-2-4.8-4.4c0-2.4,2.2-4.3,4.8-4.3c2.6,0,4.8,1.9,4.8,4.3
		C229.6,106.2,227.5,108.2,224.8,108.2z M224.8,100.4c-1.9,0-2.9,1.5-2.9,3.4s0.9,3.4,2.9,3.4c2,0,2.9-1.5,2.9-3.4
		S226.8,100.4,224.8,100.4z"/>
	<path class="st0" d="M241.2,107.8v-0.5c1.6,0,1.9-0.4,1.9-2.8V97c0-2.4-0.3-2.8-1.9-2.8v-0.5l3.6-0.6v11.4c0,2.4,0.3,2.8,1.9,2.8
		v0.5H241.2z"/>
	<path class="st0" d="M257.6,107.8v-0.5c1.6,0,1.9-0.4,1.9-2.8V97c0-2.4-0.3-2.8-1.9-2.8v-0.5l3.6-0.6v11.4c0,2.4,0.3,2.8,1.9,2.8
		v0.5H257.6z"/>
	<path class="st0" d="M279.6,107.2c0.8,0,1.9-0.5,2.6-1.1l0.4,0.5c-0.8,0.9-2.3,1.6-3.6,1.6c-2.6,0-4.4-2-4.4-4.4
		c0-2.5,2.2-4.3,4.4-4.3c2.1,0,3.8,1.7,3.2,3.8h-5.7C276.2,105.5,277.2,107.2,279.6,107.2z M280.6,102.4c0.3-0.8-0.1-1.9-1.7-1.9
		c-1,0-1.9,0.8-2.2,1.9H280.6z"/>
	<path class="st0" d="M296.6,104c0,1.9,0.9,3.2,2.9,3.2c0.8,0,1.8-0.4,2.5-1.1l0.4,0.5c-0.9,1-2.2,1.6-3.5,1.6
		c-2.6,0-4.2-1.8-4.2-4.2c0-2.8,2.3-4.6,4.2-4.6c2,0,2.8,0.8,2.8,1.7c0,0.4-0.2,1-1,1c-0.5,0-0.9-0.4-0.9-1c0-0.8-0.4-1-0.9-1
		C297.6,100.2,296.6,101.9,296.6,104z"/>
	<path class="st0" d="M313.5,100.7v-0.6c1.4-0.3,1.9-1.3,2.1-2.9h0.8v2.6h2.1v0.8h-2.1v4.7c0,1.1,0.3,1.7,1.1,1.7
		c0.4,0,1-0.3,1.5-0.8l0.4,0.4c-0.7,0.8-1.7,1.4-2.5,1.4c-1.3,0-2.2-0.8-2.2-2.7v-4.7H313.5z"/>
	<path class="st0" d="M330.7,107.8v-0.5c1.6,0,1.9-0.4,1.9-2.8v-1.2c0-2.4-0.3-2.8-1.9-2.8v-0.5l3.6-0.6v5c0,2.4,0.3,2.8,1.9,2.8
		v0.5H330.7z M333.5,97.2c-0.6,0-1-0.5-1-1.1c0-0.6,0.5-1,1-1c0.6,0,1,0.5,1,1C334.5,96.7,334,97.2,333.5,97.2z"/>
	<path class="st0" d="M354.1,101.8l-2.7,6.5h-0.5l-2.9-6.5c-0.5-1-0.8-1.4-1.6-1.4v-0.5h4.2v0.5c-1.1,0-1.2,0.3-0.7,1.4l1.7,3.8
		l1.6-3.8c0.5-1,0.4-1.4-0.7-1.4v-0.5h3.3v0.5C354.9,100.4,354.5,100.7,354.1,101.8z"/>
	<path class="st0" d="M371.6,107.2c0.8,0,1.9-0.5,2.6-1.1l0.4,0.5c-0.8,0.9-2.3,1.6-3.6,1.6c-2.6,0-4.4-2-4.4-4.4
		c0-2.5,2.2-4.3,4.4-4.3c2.1,0,3.8,1.7,3.2,3.8h-5.7C368.2,105.5,369.2,107.2,371.6,107.2z M372.6,102.4c0.3-0.8-0.1-1.9-1.7-1.9
		c-1,0-1.9,0.8-2.2,1.9H372.6z"/>
</g>
</svg>
