<?xml version="1.0" encoding="utf-8"?>
<!-- Generator: Adobe Illustrator 19.0.0, SVG Export Plug-In . SVG Version: 6.00 Build 0)  -->
<svg version="1.1" id="Layer_1" xmlns="http://www.w3.org/2000/svg" xmlns:xlink="http://www.w3.org/1999/xlink" x="0px" y="0px"
	 viewBox="-4 20.1 53.4 24.9" style="enable-background:new -4 20.1 53.4 24.9;" xml:space="preserve">
<g>
	<path d="M20.3,23.7v13.7c0,3.2,2.2,3.2,2.2,3.2h14c-0.6-1.5-1-3.3-1-5.6V23.7H20.3z"/>
	<path d="M17.7,44.4c-1-1-0.9-4-0.9-7.1V23.7h-5.7h-9c-2.8,0-6.1-0.2-6.1,1.7c0,2.1,2.7,4.1,6,5.7c4.5,2.1,6.5,2.5,7.5,6.9
		c0.1,4.6-1.5,6.4-4.3,7.1h13.4C18.2,44.9,17.9,44.7,17.7,44.4z"/>
</g>
</svg>
